<?xml version="1.0" encoding="UTF-8"?>
<svg xmlns="http://www.w3.org/2000/svg" xmlns:xlink="http://www.w3.org/1999/xlink" width="340px" height="264px" viewBox="0 0 339 264" version="1.1">
<g id="surface1">
<path style=" stroke:none;fill-rule:nonzero;fill:rgb(0%,0%,0%);fill-opacity:1;" d="M 116.675781 3.484375 C 116.488281 3.71875 116.207031 4.527344 116.066406 5.257812 C 115.734375 7.105469 114.957031 9.003906 112.449219 14.214844 C 107.070312 25.445312 104.355469 29.257812 95.027344 38.613281 C 90.324219 43.351562 87.636719 45.699219 83.429688 48.730469 C 75.261719 54.605469 69.3125 57.449219 61.1875 59.320312 C 54.246094 60.953125 49.714844 62.515625 44.421875 65.171875 C 41.1875 66.804688 39.015625 68.15625 37.054688 69.789062 C 35.144531 71.378906 33.84375 72.253906 33.585938 72.113281 C 32.855469 71.664062 35.570312 67.773438 40.007812 62.894531 C 44.1875 58.300781 44.871094 57.019531 47.207031 49.535156 C 49.144531 43.28125 50.5625 39.65625 53.113281 34.46875 C 54.199219 32.242188 55.261719 29.96875 55.472656 29.398438 C 56.914062 25.277344 54.246094 26.910156 45.722656 35.394531 C 36.320312 44.703125 31.082031 52.257812 27.183594 62.183594 C 20.457031 79.269531 20.363281 100.773438 26.972656 109.089844 C 27.46875 109.753906 28.601562 110.75 29.453125 111.34375 C 32.453125 113.378906 30.703125 113.640625 27.445312 111.648438 C 17.765625 105.777344 11.859375 97.316406 9.902344 86.46875 C 9.121094 82.226562 8.625 80.074219 8.128906 78.984375 C 7.679688 77.917969 7.632812 77.894531 7.140625 78.226562 C 5.296875 79.457031 3.929688 86.0625 4.1875 92.390625 C 4.871094 108.570312 15.640625 123.164062 44.164062 146.546875 C 53.066406 153.867188 60.242188 158.960938 68.105469 163.558594 C 70.253906 164.808594 77.035156 168.363281 83.148438 171.464844 C 93.066406 176.464844 94.292969 177.128906 94.175781 177.554688 C 94.082031 177.816406 93.726562 178.667969 93.347656 179.453125 C 92.972656 180.234375 92.664062 181.039062 92.664062 181.25 C 92.664062 181.464844 93.042969 181.9375 93.488281 182.269531 C 94.53125 183.074219 94.601562 183.832031 93.632812 183.832031 C 92.804688 183.832031 92.332031 184.542969 90.539062 188.691406 C 85.535156 200.226562 69.546875 243.578125 67.609375 250.875 C 66.878906 253.671875 66.832031 257.175781 67.539062 258.148438 C 68.179688 259.046875 69.429688 259.640625 71.222656 259.902344 C 73.324219 260.183594 89.167969 260.164062 91.390625 259.851562 C 94.71875 259.40625 97.03125 258.101562 98.308594 255.992188 C 99.109375 254.667969 103.3125 243.273438 110.421875 223.277344 C 112.496094 217.402344 115.050781 210.226562 116.085938 207.285156 C 118.402344 200.726562 122.109375 190.539062 123.101562 187.957031 C 123.761719 186.226562 123.925781 186.011719 124.542969 185.871094 C 125.460938 185.707031 129.429688 186.058594 134.105469 186.792969 C 143.574219 188.242188 151.90625 188.808594 166.574219 188.972656 C 185.507812 189.1875 200.429688 188.289062 209.996094 186.320312 C 214.480469 185.394531 213.964844 185.136719 215.425781 189.210938 C 216.914062 193.40625 222.4375 209.324219 227.1875 223.039062 C 237.03125 251.632812 239.085938 256.417969 242.675781 258.882812 C 244.753906 260.328125 245.484375 260.421875 255.214844 260.28125 C 266.050781 260.136719 267.421875 259.902344 268.863281 257.960938 C 269.785156 256.726562 269.6875 255.164062 268.367188 250.804688 C 266.195312 243.71875 261.917969 231.523438 251.742188 203.613281 C 245.816406 187.316406 243.078125 179.5 243.078125 178.789062 C 243.078125 177.957031 244.164062 177.34375 248.507812 175.636719 C 256.441406 172.554688 270.609375 164.976562 277.90625 159.90625 C 291.648438 150.359375 311.933594 132.332031 322.109375 120.652344 C 329.734375 111.886719 334.175781 101.960938 334.8125 92.273438 C 335.097656 88.054688 334.101562 82.277344 332.617188 79.503906 C 331.339844 77.085938 330.328125 78.082031 329.621094 82.464844 C 328.4375 89.691406 327.941406 91.585938 326.21875 95.496094 C 323.171875 102.339844 317.976562 108.074219 311.152344 112.050781 C 308.296875 113.734375 308.011719 113.261719 310.257812 110.511719 C 315.402344 104.1875 315.996094 102.910156 316.511719 96.558594 C 317.316406 86.5625 316.207031 75.332031 313.5625 67.042969 C 311.269531 59.792969 307.5625 52.210938 303.855469 47.214844 C 302.347656 45.175781 301.542969 44.5625 300.953125 44.964844 C 300.457031 45.34375 298.851562 46.195312 298.6875 46.195312 C 298.28125 46.195312 298.710938 45.554688 299.675781 44.679688 C 300.574219 43.851562 300.742188 43.589844 300.621094 43.089844 C 300.171875 41.292969 288.910156 30.464844 285.226562 28.285156 C 283.832031 27.480469 283.40625 27.621094 283.714844 28.785156 C 284.117188 30.179688 285.417969 33.472656 287.304688 37.785156 C 289.664062 43.183594 291.34375 47.734375 292.449219 51.878906 C 293.914062 57.234375 294.460938 58.230469 297.929688 61.664062 C 301.496094 65.195312 304.234375 68.820312 304.824219 70.761719 C 305.085938 71.710938 304.398438 71.402344 300.976562 69.078125 C 293.914062 64.316406 287.824219 61.710938 278.378906 59.34375 C 273.515625 58.132812 270.726562 57.1875 267.351562 55.625 C 258.992188 51.761719 251.4375 46.316406 243.878906 38.757812 C 236.136719 30.960938 231.152344 23.972656 226.171875 13.980469 C 223.714844 9.003906 222.839844 6.917969 222.4375 4.953125 C 222.109375 3.292969 221.753906 2.820312 221.234375 3.339844 C 219.984375 4.59375 220.195312 13.714844 221.613281 19.402344 C 222.699219 23.808594 226.570312 32.410156 230.277344 38.734375 C 232.949219 43.257812 235.875 46.078125 243.335938 51.3125 C 245.105469 52.542969 246.808594 53.824219 247.117188 54.15625 L 247.632812 54.726562 L 247.070312 54.726562 C 244.917969 54.726562 238.238281 53.015625 234.339844 51.480469 C 229.40625 49.511719 226.289062 47.757812 221.117188 43.96875 C 215.757812 40.058594 214.507812 39.539062 214.507812 41.316406 C 214.507812 44.464844 220.453125 52.164062 226.667969 57.070312 C 234.671875 63.441406 243.054688 67.089844 260.789062 72.015625 C 277.695312 76.707031 283.902344 79.503906 287.632812 84.121094 C 290.09375 87.132812 292.496094 92.675781 293.253906 96.988281 C 294.8125 106.082031 291.792969 115.324219 283.976562 125.082031 C 281.378906 128.328125 274.246094 135.410156 269.996094 138.941406 C 262.132812 145.476562 248.980469 154.742188 248.039062 154.410156 C 247.894531 154.363281 248.535156 153.273438 249.429688 151.96875 C 252.378906 147.753906 252.40625 147.707031 252.378906 145.695312 C 252.265625 138.324219 246.5 124.609375 243.527344 124.609375 C 242.085938 124.609375 241.800781 125.367188 241.449219 130.316406 C 241.117188 134.652344 240.382812 137.683594 238.828125 140.859375 C 233.796875 151.191406 221.449219 158.652344 203.878906 162.015625 C 198.851562 162.960938 190.871094 163.71875 181.117188 164.195312 C 173.585938 164.550781 156.703125 164.359375 151.933594 163.839844 C 135.046875 162.085938 121.167969 157.796875 111.554688 151.425781 C 107.964844 149.054688 103.289062 144.390625 101.425781 141.332031 C 98.921875 137.257812 97.695312 133.351562 97.410156 128.328125 C 97.292969 126.386719 97.078125 124.941406 96.914062 124.726562 C 96.746094 124.539062 96.324219 124.371094 95.96875 124.371094 C 94.34375 124.371094 91.578125 128.636719 89.050781 135.03125 C 87.683594 138.464844 87.046875 140.90625 86.734375 143.820312 C 86.359375 147.632812 86.734375 148.535156 90.585938 153.320312 C 91.71875 154.742188 92.59375 155.878906 92.523438 155.878906 C 92.285156 155.878906 85.652344 151.523438 82.628906 149.367188 C 70.894531 141.003906 60.289062 131.527344 54.246094 124.015625 C 49.59375 118.210938 46.503906 112.078125 45.554688 106.652344 C 44.800781 102.457031 45.273438 96.890625 46.738281 92.507812 C 50.304688 81.847656 55.453125 78.460938 78.023438 72.015625 C 94.953125 67.183594 103.925781 63.25 111.8125 57.1875 C 116.066406 53.917969 120.855469 48.777344 122.960938 45.226562 C 124.589844 42.453125 124.941406 40.273438 123.808594 40.273438 C 123.242188 40.273438 121.519531 41.246094 119.652344 42.570312 C 112.808594 47.519531 109.808594 49.417969 106.976562 50.625 C 105.058594 51.429688 100.667969 52.828125 96.558594 53.894531 C 93.847656 54.605469 90.609375 54.960938 90.867188 54.535156 C 90.960938 54.367188 93.230469 52.804688 95.921875 51.003906 C 103.429688 46.03125 106.195312 43.023438 110.539062 35.0625 C 116.207031 24.683594 118.898438 16.296875 118.898438 9.121094 C 118.898438 6.160156 118.496094 4.167969 117.785156 3.4375 C 117.316406 2.984375 117.148438 2.984375 116.675781 3.484375 Z M 332.804688 98.761719 C 332.804688 98.859375 331.765625 99.449219 330.515625 100.0625 C 329.238281 100.683594 327.988281 101.371094 327.753906 101.582031 C 327.328125 101.960938 327.328125 101.960938 327.566406 101.464844 C 327.894531 100.871094 329.828125 99.402344 330.941406 98.90625 C 331.839844 98.527344 332.804688 98.457031 332.804688 98.761719 Z M 43.171875 105.796875 C 43.382812 106.367188 43.359375 106.535156 42.933594 106.9375 C 42.085938 107.789062 41.328125 107.03125 41.992188 106.011719 C 42.4375 105.347656 42.960938 105.230469 43.171875 105.796875 Z M 294.742188 114.707031 C 294.601562 115.085938 293.988281 115.226562 293.230469 115.039062 C 292.285156 114.800781 292.59375 114.421875 293.75 114.421875 C 294.507812 114.421875 294.789062 114.515625 294.742188 114.707031 Z M 321.753906 116.71875 C 322.324219 117.21875 322.324219 118.210938 321.753906 118.210938 C 321.140625 118.210938 320.765625 117.738281 320.765625 116.980469 C 320.765625 116.222656 321.117188 116.128906 321.753906 116.71875 Z M 52.382812 139.582031 C 52.875 140.265625 52.851562 140.410156 52.261719 140.71875 C 51.648438 141.074219 50.632812 140.835938 50.632812 140.339844 C 50.632812 139.128906 51.742188 138.65625 52.382812 139.582031 Z M 231.625 156.351562 C 231.625 156.96875 230.304688 157.941406 229.855469 157.65625 C 229.261719 157.277344 229.832031 156.164062 230.796875 155.808594 C 231.367188 155.59375 231.625 155.761719 231.625 156.351562 Z M 117.90625 157.679688 C 119.183594 158.414062 120.761719 159.882812 120.761719 160.308594 C 120.761719 160.710938 119.960938 160.710938 119.15625 160.285156 C 118.546875 159.980469 116.039062 157.492188 116.039062 157.207031 C 116.039062 156.875 116.914062 157.113281 117.90625 157.679688 Z M 255.945312 157.371094 C 256.5625 157.84375 256.253906 158.839844 255.332031 159.316406 C 254.011719 160 253.417969 158.769531 254.53125 157.65625 C 255.191406 156.96875 255.332031 156.945312 255.945312 157.371094 Z M 141.542969 179.378906 C 141.542969 179.878906 140.335938 181.226562 139.914062 181.226562 C 139.300781 181.226562 139.984375 179.027344 140.644531 178.789062 C 141.140625 178.621094 141.542969 178.882812 141.542969 179.378906 Z M 157.125 181.820312 C 157.484375 182.246094 157.363281 182.886719 156.84375 183.21875 C 156.066406 183.691406 155.214844 182.742188 155.566406 181.796875 C 155.734375 181.371094 156.75 181.371094 157.125 181.820312 Z M 157.125 181.820312 "/>
<path style=" stroke:none;fill-rule:nonzero;fill:rgb(0%,0%,0%);fill-opacity:1;" d="M 150.207031 45.71875 C 147.566406 45.886719 147.066406 46.003906 146.125 46.550781 C 142.320312 48.777344 140.195312 52.996094 132.804688 72.84375 C 119.535156 108.546875 111.152344 132.070312 110.703125 134.960938 C 110.5625 135.910156 110.585938 135.957031 111.695312 136.761719 C 114.976562 139.15625 127.304688 144.367188 133.441406 145.953125 C 136.324219 146.6875 137.175781 146.78125 137.410156 146.40625 C 137.601562 146.09375 140.457031 138.0625 147.089844 119.28125 C 154.90625 97.082031 157.742188 89.335938 160.597656 82.203125 C 162.675781 77.066406 162.933594 76.5625 164.019531 76.023438 C 165.511719 75.261719 168.292969 74.648438 171.035156 74.480469 C 174.269531 74.265625 174.695312 74.480469 175.851562 76.683594 C 176.867188 78.671875 183.339844 96.441406 191.128906 118.804688 C 196.535156 134.296875 200.90625 146.308594 201.332031 146.804688 C 201.777344 147.375 204.398438 147.160156 207.707031 146.308594 C 215.449219 144.316406 224.871094 140.480469 226.667969 138.585938 L 227.351562 137.875 L 226.027344 133.871094 C 223.3125 125.699219 217.644531 111.082031 216.539062 109.46875 C 216.230469 108.996094 215.851562 108.027344 215.710938 107.316406 C 215.167969 104.257812 207.28125 81.871094 199.960938 62.613281 C 196.417969 53.253906 195.214844 51.097656 191.601562 47.5 L 189.714844 45.605469 L 171.460938 45.554688 C 161.445312 45.554688 151.886719 45.625 150.207031 45.71875 Z M 181.566406 59.25 C 181.753906 59.507812 181.117188 60.316406 180.457031 60.667969 C 179.675781 61.09375 178.097656 59.886719 178.519531 59.203125 C 178.6875 58.894531 181.375 58.941406 181.566406 59.25 Z M 133.136719 94.664062 C 133.347656 94.738281 133.515625 94.902344 133.515625 94.996094 C 133.515625 95.351562 132.378906 95.472656 131.695312 95.210938 C 131.082031 94.972656 131.058594 94.925781 131.507812 94.757812 C 132.097656 94.5 132.664062 94.472656 133.136719 94.664062 Z M 135.332031 100.089844 C 134.90625 100.992188 134.011719 101.535156 133.394531 101.296875 C 133.042969 101.179688 133.042969 101.085938 133.441406 100.421875 C 133.679688 99.996094 134.175781 99.472656 134.578125 99.238281 C 135.523438 98.644531 135.851562 99 135.332031 100.089844 Z M 191.367188 106.082031 C 191.8125 106.296875 192.214844 106.675781 192.261719 106.914062 C 192.40625 107.578125 191.671875 107.386719 190.703125 106.488281 C 189.761719 105.585938 190.019531 105.417969 191.367188 106.082031 Z M 118.496094 123.328125 C 118.992188 123.519531 119.015625 125.082031 118.546875 125.082031 C 118.117188 125.082031 117.457031 124.179688 117.457031 123.613281 C 117.457031 123.1875 117.835938 123.070312 118.496094 123.328125 Z M 118.496094 123.328125 "/>
</g>
</svg>
