<?xml version="1.0" standalone="no"?>
<!DOCTYPE svg PUBLIC "-//W3C//DTD SVG 20010904//EN"
 "http://www.w3.org/TR/2001/REC-SVG-20010904/DTD/svg10.dtd">
<svg version="1.0" xmlns="http://www.w3.org/2000/svg"
 width="100.000000pt" height="100.000000pt" viewBox="0 0 100.000000 100.000000"
 preserveAspectRatio="xMidYMid meet">

<g transform="translate(0.000000,100.000000) scale(0.100000,-0.100000)"
fill="#000000" stroke="none">
<path d="M200 932 c-89 -14 -150 -144 -129 -277 18 -114 86 -231 203 -354 120
-124 244 -201 366 -227 140 -29 269 28 294 129 14 60 -72 177 -157 212 -52 22
-99 7 -154 -47 l-43 -43 -127 128 -128 127 43 43 c78 79 75 147 -11 235 -59
61 -104 82 -157 74z"/>
<path d="M490 924 c0 -7 25 -16 61 -23 181 -31 319 -169 350 -348 7 -37 16
-63 23 -63 21 0 -1 117 -34 188 -41 87 -117 165 -204 207 -77 38 -196 62 -196
39z"/>
<path d="M490 802 c0 -7 12 -14 28 -17 70 -15 102 -27 140 -55 71 -51 105
-109 127 -212 10 -51 28 -32 22 22 -11 95 -83 192 -177 240 -48 25 -140 39
-140 22z"/>
<path d="M490 678 c0 -10 14 -18 40 -22 55 -9 117 -71 126 -126 4 -26 12 -40
22 -40 11 0 13 8 9 35 -13 77 -84 149 -161 162 -28 4 -36 2 -36 -9z"/>
</g>
</svg>
