<?xml version="1.0" standalone="no"?>
<!DOCTYPE svg PUBLIC "-//W3C//DTD SVG 20010904//EN"
 "http://www.w3.org/TR/2001/REC-SVG-20010904/DTD/svg10.dtd">
<svg version="1.0" xmlns="http://www.w3.org/2000/svg"
 width="150.000000pt" height="147.000000pt" viewBox="0 0 150.000000 147.000000"
 preserveAspectRatio="xMidYMid meet">

<g transform="translate(0.000000,147.000000) scale(0.100000,-0.100000)"
fill="#000000" stroke="none">
<path d="M670 1456 c-173 -48 -281 -184 -281 -352 0 -78 36 -176 121 -323 73
-127 225 -346 240 -346 15 0 167 219 240 347 105 182 135 278 119 376 -23 145
-130 258 -283 298 -61 16 -96 16 -156 0z m176 -231 c126 -96 44 -300 -114
-282 -84 9 -137 69 -137 156 0 47 5 64 27 93 56 74 152 88 224 33z"/>
<path d="M1032 688 c-7 -7 -12 -24 -12 -40 0 -33 22 -48 100 -73 30 -10 60
-22 67 -29 13 -12 154 -368 149 -374 -2 -2 -59 19 -126 47 -68 28 -131 51
-142 51 -10 0 -86 -34 -168 -75 l-150 -75 -150 75 c-82 41 -158 75 -168 75
-11 0 -76 -25 -146 -56 -71 -30 -130 -53 -132 -51 -3 3 20 90 51 194 l57 189
91 23 c99 26 127 42 127 76 0 27 -18 45 -47 45 -35 0 -230 -50 -247 -64 -8 -6
-53 -139 -101 -295 -90 -296 -90 -297 -45 -321 13 -7 68 12 204 70 l187 80
149 -75 c83 -41 159 -75 170 -75 11 0 87 34 170 75 l149 75 187 -80 c197 -83
210 -85 235 -39 9 17 -8 66 -100 297 -61 152 -115 283 -119 289 -9 15 -175 73
-207 73 -11 0 -26 -5 -33 -12z"/>
</g>
</svg>
